# xmcd CD database file
#
# Track frame offsets:
#	150
#	26266
#	48518
#	80053
#	103492
#	125361
#	155307
#	200984
#	235986
#	259443
#
# Disc length: 3645 seconds
#
# Revision: 0
# Processed by: cddbd v1.5.2PL0 Copyright (c) Steve Scherf et al.
# Submitted via: CDex 1.70beta2
#
DISCID=8f0e3b0a
DTITLE=Various Artist - After Midnight [CD1)
DYEAR=2000
DGENRE=Jazz
TTITLE0=Donald Harrison - Close The Door
TTITLE1=Bill O' Connell - Sophia Rose
TTITLE2=Charles Fambrough - Andrea
TTITLE3=Ted Rosenthal - Calling You
TTITLE4=Larry Coryell - Before Dawn
TTITLE5=Donald Harrison - Shadowbrook
TTITLE6=Jim Hall feat. Chet Baker - Django
TTITLE7=Ernie Watts With Gilberto Gill - A Raca Humana
TTITLE8=Charles Fambrough - The Tonality Of Atonement
TTITLE9=Larry Coryell - Try A Little Tenderness
EXTD=YEAR: 2000
EXTT0=
EXTT1=
EXTT2=
EXTT3=
EXTT4=
EXTT5=
EXTT6=
EXTT7=
EXTT8=
EXTT9=
PLAYORDER=
